<svg width="60" height="60" viewBox="0 0 60 60" fill="none" xmlns="http://www.w3.org/2000/svg">
<g id="message (1) 1">
<path id="Vector" d="M48.75 12.1875H11.25C9.75816 12.1875 8.32742 12.7801 7.27252 13.835C6.21763 14.8899 5.625 16.3207 5.625 17.8125V43.125C5.625 44.6168 6.21763 46.0476 7.27252 47.1025C8.32742 48.1574 9.75816 48.75 11.25 48.75H48.75C50.2418 48.75 51.6726 48.1574 52.7275 47.1025C53.7824 46.0476 54.375 44.6168 54.375 43.125V17.8125C54.375 16.3207 53.7824 14.8899 52.7275 13.835C51.6726 12.7801 50.2418 12.1875 48.75 12.1875ZM50.625 43.125C50.625 43.6223 50.4275 44.0992 50.0758 44.4508C49.7242 44.8025 49.2473 45 48.75 45H11.25C10.7527 45 10.2758 44.8025 9.92418 44.4508C9.57254 44.0992 9.375 43.6223 9.375 43.125V17.8125C9.375 17.3152 9.57254 16.8383 9.92418 16.4867C10.2758 16.135 10.7527 15.9375 11.25 15.9375H48.75C49.2473 15.9375 49.7242 16.135 50.0758 16.4867C50.4275 16.8383 50.625 17.3152 50.625 17.8125V43.125Z" fill="#CCDEFF"/>
<path id="Vector_2" d="M44.9156 18.1125L30 27.7688L15.0844 18.1125C14.6667 17.8415 14.1584 17.7475 13.6714 17.8513C13.1844 17.955 12.7585 18.2479 12.4875 18.6656C12.2165 19.0834 12.1225 19.5916 12.2263 20.0786C12.33 20.5657 12.6229 20.9915 13.0407 21.2625L28.9781 31.575C29.2823 31.7727 29.6373 31.878 30 31.878C30.3628 31.878 30.7178 31.7727 31.0219 31.575L46.9594 21.2625C47.3771 20.9915 47.6701 20.5657 47.7738 20.0786C47.8775 19.5916 47.7835 19.0834 47.5125 18.6656C47.2415 18.2479 46.8157 17.955 46.3286 17.8513C45.8416 17.7475 45.3334 17.8415 44.9156 18.1125Z" fill="#CCDEFF"/>
</g>
</svg>
