<svg width="60" height="60" viewBox="0 0 60 60" fill="none" xmlns="http://www.w3.org/2000/svg">
<g id="online-location 1">
<path id="Vector" d="M48.75 1.875H11.25C10.0189 1.875 8.79977 2.11749 7.66234 2.58863C6.52492 3.05977 5.49142 3.75032 4.62087 4.62087C2.86272 6.37903 1.875 8.7636 1.875 11.25V41.25C1.875 43.7364 2.86272 46.121 4.62087 47.8791C5.49142 48.7497 6.52492 49.4402 7.66234 49.9114C8.79977 50.3825 10.0189 50.625 11.25 50.625H18.75V54.375H11.25C10.7527 54.375 10.2758 54.5725 9.92418 54.9242C9.57254 55.2758 9.375 55.7527 9.375 56.25C9.375 56.7473 9.57254 57.2242 9.92418 57.5758C10.2758 57.9275 10.7527 58.125 11.25 58.125H48.75C49.2473 58.125 49.7242 57.9275 50.0758 57.5758C50.4275 57.2242 50.625 56.7473 50.625 56.25C50.625 55.7527 50.4275 55.2758 50.0758 54.9242C49.7242 54.5725 49.2473 54.375 48.75 54.375H41.25V50.625H48.75C51.2364 50.625 53.621 49.6373 55.3791 47.8791C57.1373 46.121 58.125 43.7364 58.125 41.25V11.25C58.125 10.0189 57.8825 8.79977 57.4114 7.66234C56.9402 6.52492 56.2497 5.49142 55.3791 4.62087C54.5086 3.75032 53.4751 3.05977 52.3377 2.58863C51.2002 2.11749 49.9811 1.875 48.75 1.875ZM37.5 54.375H22.5V50.625H37.5V54.375ZM54.375 41.25C54.375 42.7418 53.7824 44.1726 52.7275 45.2275C51.6726 46.2824 50.2418 46.875 48.75 46.875H11.25C9.75816 46.875 8.32742 46.2824 7.27252 45.2275C6.21763 44.1726 5.625 42.7418 5.625 41.25V11.25C5.625 9.75816 6.21763 8.32742 7.27252 7.27252C8.32742 6.21763 9.75816 5.625 11.25 5.625H48.75C50.2418 5.625 51.6726 6.21763 52.7275 7.27252C53.7824 8.32742 54.375 9.75816 54.375 11.25V41.25Z" fill="#CCDEFF"/>
<path id="Vector_2" d="M30 10.3125C26.519 10.3125 23.1806 11.6953 20.7192 14.1567C18.2578 16.6181 16.875 19.9565 16.875 23.4375C16.875 30.2625 27.5063 40.5187 28.7063 41.6812C29.055 42.0137 29.5182 42.1991 30 42.1991C30.4818 42.1991 30.945 42.0137 31.2938 41.6812C32.4938 40.5187 43.125 30.2625 43.125 23.4375C43.125 19.9565 41.7422 16.6181 39.2808 14.1567C36.8194 11.6953 33.481 10.3125 30 10.3125ZM30 37.6875C25.9312 33.5625 20.625 26.9812 20.625 23.4375C20.625 20.9511 21.6127 18.5665 23.3709 16.8084C25.129 15.0502 27.5136 14.0625 30 14.0625C32.4864 14.0625 34.871 15.0502 36.6291 16.8084C38.3873 18.5665 39.375 20.9511 39.375 23.4375C39.375 26.9812 34.0688 33.5625 30 37.6875Z" fill="#CCDEFF"/>
<path id="Vector_3" d="M30 16.875C28.7021 16.875 27.4333 17.2599 26.3541 17.981C25.2749 18.7021 24.4337 19.727 23.937 20.9261C23.4403 22.1253 23.3104 23.4448 23.5636 24.7178C23.8168 25.9908 24.4418 27.1601 25.3596 28.0779C26.2774 28.9957 27.4467 29.6207 28.7197 29.8739C29.9927 30.1271 31.3122 29.9972 32.5114 29.5005C33.7105 29.0038 34.7354 28.1626 35.4565 27.0834C36.1776 26.0042 36.5625 24.7354 36.5625 23.4375C36.5625 21.697 35.8711 20.0278 34.6404 18.7971C33.4097 17.5664 31.7405 16.875 30 16.875ZM30 26.25C29.4437 26.25 28.9 26.0851 28.4375 25.776C27.9749 25.467 27.6145 25.0277 27.4016 24.5138C27.1887 23.9999 27.133 23.4344 27.2415 22.8888C27.3501 22.3432 27.6179 21.8421 28.0113 21.4488C28.4046 21.0554 28.9057 20.7876 29.4513 20.679C29.9969 20.5705 30.5624 20.6262 31.0763 20.8391C31.5902 21.052 32.0295 21.4124 32.3385 21.875C32.6476 22.3375 32.8125 22.8812 32.8125 23.4375C32.8125 24.1834 32.5162 24.8988 31.9887 25.4262C31.4613 25.9537 30.7459 26.25 30 26.25Z" fill="#CCDEFF"/>
</g>
</svg>
