<svg width="60" height="60" viewBox="0 0 60 60" fill="none" xmlns="http://www.w3.org/2000/svg">
<g id="phone (1) 1">
<path id="Vector" d="M24.78 15.12C24.0638 6.88125 15.4688 2.83875 15.105 2.67375C14.765 2.5139 14.3839 2.46283 14.0138 2.5275C4.09128 4.17375 2.59878 9.94875 2.53878 10.1887C2.45715 10.5232 2.47013 10.8738 2.57628 11.2012C14.4113 47.9212 39.0075 54.7275 47.0925 56.9663C47.715 57.1387 48.2288 57.2775 48.6188 57.405C49.0638 57.5504 49.5474 57.5223 49.9725 57.3262C50.22 57.2137 56.0625 54.4613 57.4913 45.4837C57.5546 45.0918 57.4916 44.6899 57.3113 44.3363C57.1838 44.0887 54.1275 38.2725 45.6525 36.2175C45.365 36.144 45.0639 36.1414 44.7752 36.21C44.4865 36.2786 44.2188 36.4163 43.995 36.6112C41.3213 38.895 37.6275 41.3288 36.0338 41.58C25.35 36.3563 19.3838 26.3325 19.1588 24.4312C19.0275 23.3625 21.4763 19.6087 24.2925 16.5562C24.4695 16.3641 24.6044 16.1371 24.6883 15.8897C24.7723 15.6424 24.8035 15.3802 24.78 15.12Z" fill="#CCDEFF"/>
</g>
</svg>
