<svg width="40" height="40" viewBox="0 0 40 40" fill="none" xmlns="http://www.w3.org/2000/svg">
<g id="star 1">
<path id="Vector" fill-rule="evenodd" clip-rule="evenodd" d="M20 2L24.8607 12.928C25.0474 13.3477 25.3413 13.7108 25.713 13.9809C26.0847 14.251 26.5209 14.4183 26.9777 14.4662L38.8729 15.7119L29.9818 23.7116C29.6403 24.0189 29.3857 24.4107 29.2438 24.8476C29.1018 25.2844 29.0774 25.7511 29.1731 26.2004L31.6641 37.8983L21.3084 31.9144C20.9106 31.6846 20.4594 31.5636 20 31.5636C19.5406 31.5636 19.0894 31.6846 18.6916 31.9144L8.33592 37.8983L10.8269 26.2004C10.9226 25.7511 10.8982 25.2844 10.7563 24.8476C10.6143 24.4107 10.3598 24.0189 10.0183 23.7116L1.12714 15.7119L13.0223 14.4662C13.4792 14.4183 13.9154 14.251 14.287 13.9809C14.6587 13.7108 14.9527 13.3477 15.1394 12.928L20 2Z" fill="#F4C01E"/>
</g>
</svg>
